# xmcd CD database file
#
# Track frame offsets:
#	183
#	12908
#	28620
#	40158
#	55533
#	67820
#	81033
#	93708
#	106308
#	119583
#	131570
#	143608
#	152570
#	163683
#
# Disc length: 2485 seconds
#
# Revision: 0
# Processed by: cddbd v1.5.1PL0 Copyright (c) Steve Scherf et al.
# Submitted via: CDex 1.51
#
DISCID=ac09b30e
DTITLE=Platters - Discos ORO
DYEAR=1991
DGENRE=Blues
TTITLE0=Twinlight time
TTITLE1=My prayer
TTITLE2=Smoke gets in your eyes
TTITLE3=The great pretender
TTITLE4=The magic touch
TTITLE5=I'm sorry
TTITLE6=If I had you
TTITLE7=Only you
TTITLE8=Harbor lights
TTITLE9=With this ring
TTITLE10=I love you 1000 times
TTITLE11=Sweet-sweet lovin'
TTITLE12=Red sails in the sunset
TTITLE13=Unchained melody
EXTD=YEAR: 1991
EXTT0=
EXTT1=
EXTT2=
EXTT3=
EXTT4=
EXTT5=
EXTT6=
EXTT7=
EXTT8=
EXTT9=
EXTT10=
EXTT11=
EXTT12=
EXTT13=
PLAYORDER=
